<svg version="1.1" id="Layer_1" xmlns="http://www.w3.org/2000/svg" xmlns:xlink="http://www.w3.org/1999/xlink" x="0px" y="0px"
	 width="100%" viewBox="0 0 1600 1600" enable-background="new 0 0 1600 1600" xml:space="preserve">

<path fill="#000000" opacity="1.000000" stroke="none" 
	d="
M972.355591,536.239136 
	C979.559326,531.065063 987.372803,531.786316 995.268494,531.886963 
	C1005.340820,532.015381 1014.756592,534.697571 1024.030640,538.033081 
	C1036.688232,542.585449 1047.598877,549.800293 1056.604004,559.963989 
	C1060.335815,564.176025 1065.600830,567.150024 1068.851807,571.640381 
	C1074.171143,578.987732 1078.557861,587.020447 1080.025024,596.287476 
	C1082.060547,609.142456 1079.468018,621.475403 1076.071533,633.724304 
	C1072.868774,645.274170 1069.946167,656.924133 1066.166748,668.286072 
	C1061.735718,681.607056 1056.606445,694.700317 1051.602417,707.824646 
	C1047.785400,717.835266 1043.874634,727.818481 1039.666260,737.668884 
	C1035.899902,746.484619 1031.469727,755.016541 1027.696167,763.829468 
	C1023.195923,774.339600 1018.224731,784.773682 1015.138977,795.714844 
	C1013.412720,801.835876 1014.087952,809.140808 1015.505127,815.506165 
	C1017.075317,822.558655 1013.657043,831.291443 1007.464600,836.306458 
	C996.807312,844.937317 984.808899,845.137634 972.348022,843.001282 
	C959.952637,840.876160 947.627319,838.342407 935.271118,835.988525 
	C932.046265,835.374207 926.194519,829.447327 925.479126,825.315613 
	C886.100281,860.361755 841.709900,860.776855 794.423157,845.164124 
	C792.675415,850.743347 791.058472,856.692566 788.953735,862.463928 
	C784.173523,875.571533 776.036804,886.536011 764.178101,893.605103 
	C757.942322,897.322327 749.957642,898.399353 742.597778,899.804871 
	C739.240417,900.445984 737.427917,901.726440 735.852905,904.461975 
	C731.078308,912.754517 725.129089,920.188477 717.390686,925.829041 
	C708.339233,932.426758 699.461792,939.668701 689.470154,944.468933 
	C676.829651,950.541748 663.532654,955.775452 649.002686,956.036804 
	C643.080750,956.143372 637.135742,957.197998 631.256409,956.860413 
	C624.497375,956.472290 617.593201,955.713806 611.143555,953.798157 
	C606.431885,952.398743 604.031128,954.477234 600.989380,956.862000 
	C595.186096,961.411865 589.734375,966.811890 583.220215,969.965942 
	C571.329773,975.723145 558.982239,980.749695 546.419189,984.830566 
	C537.758972,987.643616 528.374023,988.156860 519.386047,990.045776 
	C506.432098,992.768311 493.813721,989.799744 482.142670,985.578674 
	C469.564026,981.029358 459.112518,973.070068 454.713745,958.470825 
	C449.737793,941.955933 455.510101,927.502319 459.767090,912.385742 
	C462.601532,902.320679 463.637878,892.208374 457.206604,882.572876 
	C450.800049,872.974426 442.316254,866.033630 432.746277,859.821045 
	C422.719849,853.312195 412.938232,845.855469 407.265472,835.115662 
	C403.119232,827.265869 400.849060,818.420471 403.343689,809.062073 
	C407.930298,791.856018 419.231903,780.161255 433.782257,771.037109 
	C440.876831,766.588257 447.963287,762.101501 455.275146,758.030151 
	C465.932281,752.095947 477.200439,747.728149 489.384125,745.974609 
	C497.883820,744.751160 506.432251,741.897095 514.820862,742.346924 
	C526.514954,742.973999 538.142883,745.716187 549.656921,748.210144 
	C552.588379,748.845093 554.091492,748.525024 555.970764,746.607056 
	C565.365051,737.018616 575.439270,728.006653 587.621521,722.369263 
	C597.698425,717.706055 608.411438,713.654053 619.270752,711.640686 
	C632.417786,709.203125 646.051697,708.755920 659.330811,712.083252 
	C662.690186,712.924988 665.783997,714.826233 668.440063,715.994324 
	C673.432861,708.122437 677.629150,700.114624 683.187378,693.201904 
	C687.324158,688.056946 692.978271,683.992371 698.391052,680.041931 
	C709.761047,671.743591 722.914856,669.772278 736.522522,671.109314 
	C745.676697,672.008911 753.864746,676.036682 760.620728,682.263550 
	C766.143066,687.353455 771.079407,693.079285 776.266418,698.513672 
	C815.452332,659.440247 874.319824,646.125610 934.922607,698.847961 
	C935.291077,690.896423 935.386047,683.213013 936.059814,675.580627 
	C937.164795,663.062622 938.620239,650.575073 939.976379,638.079895 
	C940.943481,629.169067 941.504456,620.178162 943.111328,611.380920 
	C945.713318,597.135315 948.233093,582.786865 952.301880,568.926331 
	C955.258118,558.856018 959.399292,548.826782 966.780762,540.792542 
	C968.303894,539.134583 970.273682,537.887085 972.355591,536.239136 
M1048.555176,644.959412 
	C1049.475830,640.715942 1049.935303,636.305298 1051.402344,632.260010 
	C1056.020508,619.525330 1056.903687,606.517944 1056.187134,593.086426 
	C1055.783813,585.525146 1052.684692,579.676636 1047.916626,574.579895 
	C1042.924561,569.243835 1037.695557,563.921143 1031.763916,559.734863 
	C1026.486084,556.010071 1020.326843,553.153748 1014.151611,551.183594 
	C1007.444336,549.043640 1000.249817,548.464539 993.303894,547.030029 
	C986.045227,545.530945 978.274231,549.112549 975.040527,556.043396 
	C971.946716,562.674561 968.433960,569.258240 966.502808,576.248840 
	C963.680298,586.466248 962.077026,597.022644 960.011414,607.445923 
	C958.943726,612.833496 957.740479,618.213196 957.062500,623.654297 
	C956.132568,631.116150 955.761902,638.646118 954.937439,646.123230 
	C953.723755,657.130737 951.754150,668.085693 951.135315,679.120667 
	C950.263306,694.669861 950.379761,710.273132 949.963562,725.850281 
	C949.867737,729.438538 949.420959,733.028320 948.922302,736.587524 
	C948.792236,737.516357 947.859741,738.332764 946.858459,739.873840 
	C946.241516,738.082642 946.158936,736.870178 945.522278,736.142395 
	C937.633911,727.124817 929.593262,718.240051 921.737854,709.194336 
	C914.624939,701.003723 905.329468,695.919800 895.963928,691.047668 
	C885.511169,685.609985 874.677551,681.594971 862.592896,680.605652 
	C852.670898,679.793457 842.898804,679.614380 833.399170,682.119507 
	C826.524841,683.932373 820.040527,687.289429 813.460876,690.139343 
	C802.669800,694.813354 794.516846,703.103271 785.935059,710.749756 
	C784.823242,711.740417 783.859192,714.082764 784.246033,715.373596 
	C786.435730,722.680786 789.434326,729.756409 791.426575,737.108887 
	C793.400330,744.393005 794.769897,751.871460 795.918274,759.339478 
	C796.960510,766.117126 797.784851,772.985962 797.933350,779.831299 
	C798.237610,793.864319 798.024658,807.908569 798.024658,823.056335 
	C801.209106,824.184875 805.487000,825.131836 809.201843,827.127075 
	C819.252075,832.525146 830.338684,832.084106 841.055115,832.757019 
	C849.639343,833.296021 858.351868,831.534546 867.021423,831.036194 
	C878.020081,830.404114 887.574158,825.432495 896.308289,819.733887 
	C904.872620,814.145996 912.047668,806.430359 919.841064,799.658447 
	C922.198303,797.610168 924.412659,795.336548 926.995178,793.622131 
	C931.517334,790.620178 939.146484,794.701538 938.893127,800.110962 
	C938.698669,804.261841 937.971436,808.508911 936.676270,812.448669 
	C935.646118,815.582458 936.886780,815.715088 939.234558,816.045715 
	C943.380310,816.629456 947.550598,817.244263 951.597290,818.286072 
	C962.089661,820.987244 972.592773,823.170166 983.540771,822.024902 
	C992.116699,821.127747 994.108459,818.241333 993.123779,809.682922 
	C992.317505,802.674438 990.743042,795.072327 992.561279,788.589417 
	C996.073914,776.065186 1001.567505,764.073547 1006.568542,751.997192 
	C1010.458984,742.602539 1015.007202,733.481750 1018.973694,724.116699 
	C1023.577759,713.246277 1027.875732,702.245911 1032.287720,691.294434 
	C1035.207886,684.045898 1038.383179,676.882935 1040.918701,669.501160 
	C1043.615112,661.651123 1045.691284,653.587891 1048.555176,644.959412 
M438.506500,831.003296 
	C438.976410,831.475891 439.383057,832.042542 439.925476,832.407410 
	C453.828552,841.759949 467.105316,851.781677 477.652435,865.065796 
	C484.436249,873.610291 487.734253,883.521362 486.711853,893.916992 
	C485.602081,905.201111 482.076141,916.231506 479.954498,927.438904 
	C478.900452,933.006958 477.915771,938.759216 478.194092,944.363892 
	C478.519836,950.923035 482.245117,956.680786 487.305176,960.501648 
	C495.620300,966.780273 505.912231,968.448059 515.975037,968.834839 
	C532.338867,969.463745 548.001709,965.583069 563.010742,959.037231 
	C575.916260,953.408875 588.979614,948.394165 598.197327,936.601440 
	C603.335571,930.027954 605.058716,923.548523 603.242920,915.682190 
	C601.223694,906.934326 596.774170,899.416687 592.056335,891.923645 
	C585.634399,881.724243 579.616821,871.270142 573.427795,860.924194 
	C571.363220,857.472900 568.667664,854.236389 567.392212,850.513916 
	C565.491577,844.966858 562.767761,838.768372 563.671326,833.398438 
	C565.291138,823.771118 568.948975,814.399048 572.505432,805.210693 
	C575.816040,796.657593 577.193115,788.606506 570.973145,780.902222 
	C565.147888,773.686890 557.494019,769.300354 549.131531,765.291687 
	C539.243408,760.551758 529.000122,759.330444 518.534729,759.154602 
	C510.886261,759.026062 503.111603,759.773132 495.579254,761.148682 
	C487.263306,762.667419 478.829315,764.546875 471.056366,767.749023 
	C463.239899,770.968994 455.829803,775.109924 448.960876,780.645020 
	C442.243225,786.058228 436.307526,791.838440 432.216034,799.110291 
	C429.966156,803.109131 428.756226,808.560852 429.328217,813.072144 
	C430.146362,819.524841 432.973297,825.743164 438.506500,831.003296 
M636.708740,936.001221 
	C642.610779,935.612305 648.666748,935.932434 654.383850,934.691467 
	C667.539734,931.835754 680.651428,928.316284 692.079102,920.882080 
	C699.801697,915.858215 707.571594,910.532410 714.042297,904.063293 
	C720.616943,897.490234 726.290527,889.640808 728.934204,880.450928 
	C730.747681,874.146973 732.310669,867.494873 732.294312,861.002625 
	C732.266785,850.085632 727.645630,840.560059 721.069031,831.792114 
	C714.168701,822.592468 705.730713,815.291016 695.156067,811.232544 
	C685.423950,807.497314 675.159241,804.807373 664.453552,807.015259 
	C655.954773,808.768066 647.313843,810.100098 639.044556,812.627930 
	C629.300354,815.606506 619.996094,820.018921 610.262878,823.042725 
	C607.563904,823.881226 603.253601,822.923218 601.066895,821.115112 
	C598.638672,819.107422 597.343384,815.767639 598.683777,811.506226 
	C601.985352,801.009705 610.101868,796.303040 619.481079,794.275818 
	C627.252319,792.596130 635.549622,793.402039 643.607544,792.985413 
	C657.186829,792.283447 667.548157,785.940552 673.870605,774.033875 
	C678.212402,765.857178 678.836853,757.159241 676.258728,747.786926 
	C674.193848,740.280518 669.310608,735.123291 663.910706,731.291199 
	C652.607056,723.269348 638.834961,725.015747 626.208618,726.444885 
	C616.462891,727.547974 607.029297,732.185303 597.680969,735.826477 
	C586.169983,740.309875 575.868896,746.657776 569.475464,757.142212 
	C573.891479,761.806641 578.299072,766.192871 582.395752,770.852356 
	C588.570862,777.875610 592.266663,786.419189 590.693909,795.492920 
	C589.101135,804.683044 584.952393,813.407593 582.291504,822.444519 
	C580.908447,827.141724 578.745178,832.431946 579.743774,836.814087 
	C581.227539,843.325500 584.847900,849.468933 588.195862,855.410095 
	C593.926086,865.578613 599.856262,875.661743 606.260376,885.414429 
	C611.185486,892.914673 615.657959,900.512512 617.030518,909.454407 
	C618.016968,915.879944 619.050903,922.443665 618.689941,928.868652 
	C618.511475,932.046753 618.737915,932.740234 621.564209,933.202698 
	C626.324280,933.981628 631.036438,935.052795 636.708740,936.001221 
M783.669128,799.842468 
	C783.448486,799.066528 783.072876,798.298950 783.030273,797.513306 
	C782.325989,784.534119 782.795166,771.368408 780.719177,758.616028 
	C777.812439,740.760437 772.513672,723.402832 762.951782,707.685791 
	C754.409729,693.645203 738.714050,682.840271 722.122192,686.892822 
	C706.680420,690.664368 694.916748,698.438538 688.814087,713.563782 
	C687.157043,717.670776 685.465271,721.776001 684.112976,725.985962 
	C683.723145,727.199463 684.012878,729.096130 684.754089,730.135376 
	C691.349731,739.382263 693.641907,749.619141 693.087219,760.878662 
	C692.515869,772.476624 687.332764,782.102600 681.410950,791.768860 
	C701.140686,795.744507 718.801392,803.250488 731.650879,819.987427 
	C744.683228,836.962524 751.038940,855.297913 746.280334,876.856140 
	C753.626465,877.013367 759.918030,874.244629 764.341003,868.931763 
	C771.290222,860.584412 775.265747,850.574524 778.034424,840.066711 
	C781.461609,827.059631 782.289368,813.752563 783.669128,799.842468 
z"/>
<path fill="#000000" opacity="1.000000" stroke="none" 
	d="
M505.988647,659.230164 
	C512.897461,666.371155 512.217712,682.259949 507.632385,691.001343 
	C502.112701,701.524048 493.528381,709.310486 483.910583,715.181519 
	C468.090149,724.838867 450.725800,728.545227 432.381134,722.068115 
	C426.359009,719.941833 419.770142,718.747742 414.447449,715.484741 
	C407.883179,711.460571 402.264862,706.149170 400.827332,697.415405 
	C399.338196,688.368103 401.774506,680.496948 406.463531,673.394714 
	C409.362213,669.004333 413.811340,665.530518 417.936310,662.091187 
	C421.124817,659.432739 424.761108,657.227905 428.424622,655.237915 
	C439.400330,649.276062 451.059845,646.083679 463.614471,644.703735 
	C473.858887,643.577759 483.475372,644.627625 492.558868,648.510803 
	C497.584137,650.659058 501.538269,655.312866 505.988647,659.230164 
M479.897766,698.628174 
	C484.282593,693.889832 489.170654,689.505676 492.852905,684.272949 
	C494.880157,681.392212 496.316071,676.724182 495.504944,673.492859 
	C493.619934,665.983521 487.183228,660.954834 479.160583,660.992249 
	C472.173126,661.024902 465.063507,660.170715 458.223907,661.176941 
	C445.191956,663.094238 433.903717,668.437927 427.959320,681.347290 
	C425.390778,686.925293 427.014435,693.818726 431.810089,695.868225 
	C437.320221,698.223145 442.971405,700.481567 448.780701,701.851501 
	C459.133453,704.292908 469.409698,703.572754 479.897766,698.628174 
z"/>
<path fill="#000000" opacity="1.000000" stroke="none" 
	d="
M766.780518,602.394043 
	C774.064758,613.263916 772.693115,624.738586 769.881165,635.983582 
	C767.827148,644.197510 761.778076,650.365173 754.952332,654.781128 
	C748.642822,658.863098 741.451538,662.185547 734.188477,664.051514 
	C722.747803,666.990601 711.882629,664.706055 701.928955,657.588501 
	C689.503235,648.703369 687.222595,636.150024 691.433044,623.407654 
	C695.194092,612.025208 701.720764,601.613464 713.912659,595.665771 
	C720.926880,592.243958 727.932739,589.761597 735.373230,589.167175 
	C747.710754,588.181641 758.841736,591.344360 766.780518,602.394043 
M741.945740,639.588257 
	C747.868530,636.898621 752.418396,632.951355 755.095398,626.775574 
	C759.445496,616.740234 753.295532,605.800598 742.249695,605.991333 
	C739.266418,606.042847 736.281616,605.993408 733.297485,606.000305 
	C723.954346,606.022034 713.359375,613.093140 709.786133,621.686646 
	C706.335449,629.985413 709.351746,637.164490 717.464722,641.122620 
	C725.715027,645.147766 733.496704,642.999207 741.945740,639.588257 
z"/>
<path fill="#000000" opacity="1.000000" stroke="none" 
	d="
M850.401855,784.880066 
	C850.808411,788.665466 850.548462,792.194824 851.079102,795.601074 
	C851.811646,800.303833 848.720154,802.692627 845.477844,803.523071 
	C842.982483,804.162231 838.803955,803.184265 837.180176,801.337280 
	C832.425110,795.928955 828.082825,790.004089 824.539307,783.738464 
	C822.176575,779.560486 820.925720,774.539307 820.150879,769.738403 
	C819.384155,764.987488 820.202087,760.255859 825.526245,757.844727 
	C829.570007,756.013367 835.703125,756.635986 838.858643,760.594788 
	C841.861450,764.361877 843.871582,768.986816 845.939575,773.411560 
	C847.614075,776.994446 848.726196,780.840088 850.401855,784.880066 
z"/>
<path fill="#000000" opacity="1.000000" stroke="none" 
	d="
M634.795044,887.982849 
	C629.695312,888.082764 625.179749,886.185242 624.613220,881.766846 
	C624.092896,877.708740 625.147034,872.258240 627.674377,869.229004 
	C634.526794,861.015808 644.507690,857.722473 654.800049,856.127319 
	C659.656738,855.374634 664.841003,855.260864 669.655945,856.110107 
	C674.924255,857.039246 676.405396,862.867065 672.682922,866.686584 
	C670.308411,869.122986 667.504578,871.255737 664.592102,873.030212 
	C657.761597,877.191833 650.823059,881.192505 643.773987,884.970459 
	C641.140991,886.381653 638.078979,886.992371 634.795044,887.982849 
z"/>
<!-- <path fill="#000000" opacity="1.000000" stroke="none" 
	d="
M1101.071533,957.967773 
	C1097.582642,957.414185 1096.906860,955.356262 1096.965454,952.552063 
	C1097.083740,946.908447 1097.000732,941.260742 1097.000732,935.222473 
	C1095.252319,935.142456 1093.584961,935.355774 1092.120117,934.907227 
	C1090.955200,934.550476 1090.037842,933.385071 1089.010498,932.578735 
	C1089.980957,931.719727 1090.975586,930.094849 1091.918091,930.124573 
	C1098.592773,930.334778 1105.809937,932.737183 1111.810547,930.945435 
	C1124.904419,927.035583 1120.167725,938.921387 1123.966919,943.034546 
	C1124.864014,944.005859 1125.047974,945.635925 1126.002563,948.110168 
	C1127.881348,942.849243 1129.840820,938.575867 1130.875610,934.089172 
	C1131.740112,930.340820 1133.909790,929.897278 1136.979004,929.979980 
	C1140.725952,930.081055 1139.967896,932.794067 1139.984741,935.004822 
	C1140.029175,940.832764 1139.912598,946.663269 1140.037964,952.488892 
	C1140.098145,955.284485 1139.455811,957.732544 1136.423340,957.737122 
	C1135.618042,957.738342 1134.321655,954.687866 1134.107056,952.933716 
	C1133.726074,949.819275 1134.000000,946.624634 1133.419800,943.309387 
	C1132.059692,947.278748 1130.868164,951.319336 1129.239746,955.175293 
	C1128.733643,956.373474 1126.870117,957.969666 1125.934326,957.789856 
	C1124.489380,957.512329 1122.664795,956.110718 1122.139160,954.747253 
	C1120.734253,951.102905 1119.934937,947.225159 1118.000366,943.531311 
	C1118.000366,946.878845 1118.261841,950.256165 1117.885010,953.560730 
	C1117.708374,955.108887 1116.300171,956.516479 1115.450073,957.987732 
	C1114.300171,956.446106 1112.281860,954.970520 1112.158569,953.350769 
	C1111.742798,947.887085 1112.005493,942.372253 1111.994019,936.876953 
	C1111.992310,936.058594 1111.911499,935.240295 1111.881714,934.689575 
	C1108.985107,934.854980 1106.249023,935.011292 1103.000000,935.196838 
	C1103.000000,941.133362 1103.106323,947.081055 1102.931274,953.020569 
	C1102.882568,954.673706 1102.001343,956.302368 1101.071533,957.967773 
z"/> -->
</svg>